<svg xmlns="http://www.w3.org/2000/svg" viewBox="0 0 512 512">
  <rect width="512" height="512" rx="96" fill="#171a1f"/>
  <path d="M96 118h320c34 0 62 28 62 62v126c0 34-28 62-62 62h-66l-48-52h-92l-48 52H96c-34 0-62-28-62-62V180c0-34 28-62 62-62z" fill="#d9dde5"/>
  <path d="M103 143h306c24 0 43 19 43 43v114c0 24-19 43-43 43h-73l-40-44h-80l-40 44h-73c-24 0-43-19-43-43V186c0-24 19-43 43-43z" fill="#2b313c"/>
  <path d="M111 235h38v-38h42v38h38v42h-38v38h-42v-38h-38z" fill="#101216"/>
  <circle cx="338" cy="235" r="30" fill="#285f55"/>
  <circle cx="397" cy="199" r="24" fill="#f2c14e"/>
  <circle cx="397" cy="272" r="24" fill="#f2c14e"/>
  <circle cx="314" cy="299" r="20" fill="#5c6f86"/>
  <path d="M248 208h42M229 236h80M248 264h42" stroke="#66d9c5" stroke-width="14" stroke-linecap="round"/>
  <rect x="214" y="77" width="84" height="68" rx="16" fill="#555f70"/>
  <path d="M236 94h40v34h-40z" fill="#101216"/>
</svg>
